# xmcd
#
# Track frame offsets: 
#        150
#        16107
#        36389
#        55604
#        77235
#        94764
#        110926
#        131914
#        151055
#        174372
#        192223
#        210375
#        229976
#        255459
#        273795
#        292371
#        312812
#        328972
#        345273
#
# Disc length: 4854 seconds
#
# Revision: 9
# Processed by: cddbd v1.5.2PL0 Copyright (c) Steve Scherf et al.
# Submitted via: ExactAudioCopy v0.95b4
#
DISCID=0d12f413
DTITLE=Various Artist - Platin (The very Best of) - Vol. 01 - CD 2
DYEAR=2000
DGENRE=Pop
TTITLE0=Bon Jovi - Say it isn't so
TTITLE1=Aerosmith - Cryin'
TTITLE2=Oasis - Wonderwall
TTITLE3=Eurythmics - I saved the world today
TTITLE4=Eagle Eye Cherry - Save tonight
TTITLE5=Shania Twain - Don't be stupid (you know I love you)
TTITLE6=New Radicals - You get what you give (Radio Edit)
TTITLE7=The Corrs - Radio (Edit)
TTITLE8=R.E.M. - Man on the moon (Album Version)
TTITLE9=Natalie Imbruglia - Torn (Album Version)
TTITLE10=A-ha - Summer moved on (Radio Edit)
TTITLE11=Soul Asylum - Runaway train
TTITLE12=Depeche Mode - It's no good
TTITLE13=Sara Brightman and Andrea Bocelli - Time to say Goodbye (Con te
TTITLE13=partiro) (Single Version)
TTITLE14=Loona - Hijo de la luna (Sentimiento Mix)
TTITLE15=Boyzone - No matter what
TTITLE16=Jessica - How will I know (who you are)
TTITLE17=K-Ci and Jojo - All my life (Radio Edit)
TTITLE18=Savage Garden - To the moon and back (Short Edit)
EXTD=YEAR: 2000
EXTT0=
EXTT1=
EXTT2=
EXTT3=
EXTT4=
EXTT5=
EXTT6=
EXTT7=
EXTT8=
EXTT9=
EXTT10=
EXTT11=
EXTT12=
EXTT13=
EXTT14=
EXTT15=
EXTT16=
EXTT17=
EXTT18=
PLAYORDER=
